<svg width="44" height="47" viewBox="0 0 44 47" fill="none" xmlns="http://www.w3.org/2000/svg">
<g clip-path="url(#clip0_3181_2119)">
<path d="M20.5683 6.35057C22.2817 6.35057 23.6707 4.95499 23.6707 3.23345C23.6707 1.51191 22.2817 0.116333 20.5683 0.116333C18.8548 0.116333 17.4658 1.51191 17.4658 3.23345C17.4658 4.95499 18.8548 6.35057 20.5683 6.35057Z" fill="#356AB9"/>
<path d="M37.2191 15.184C38.1465 15.184 38.8982 14.4287 38.8982 13.497C38.8982 12.5653 38.1465 11.81 37.2191 11.81C36.2918 11.81 35.54 12.5653 35.54 13.497C35.54 14.4287 36.2918 15.184 37.2191 15.184Z" fill="url(#paint0_linear_3181_2119)"/>
<path d="M35.7169 16.5289C40.2918 16.5289 44.2873 20.2874 43.7643 25.41C43.3268 29.694 42.448 32.1885 41.1238 33.6145C39.8057 35.0337 38.0253 35.4158 35.7169 35.4158H35.711L35.7051 35.4163C30.8331 35.9058 27.4702 34.6765 25.3248 32.5552C23.198 30.4523 22.2507 27.4563 22.2324 24.3366C23.3428 24.0872 24.447 23.4856 25.5437 22.7261C26.6712 21.9452 27.8017 20.9908 28.9296 20.0717C30.0602 19.1505 31.1895 18.2636 32.3233 17.6068C33.457 16.9501 34.5862 16.5289 35.7169 16.5289Z" fill="white" stroke="url(#paint1_linear_3181_2119)" stroke-width="0.5"/>
<path d="M12.7332 5.06067C14.6921 5.06072 16.0914 5.9049 16.6511 8.01362C17.6304 11.7039 13.9522 13.0219 14.4122 15.0429C14.5897 15.8219 16.2371 17.1154 18.4698 14.1995C20.2996 11.8095 25.3201 13.4966 23.6473 17.7141C16.2315 36.4118 41.1378 40.0669 43.9362 24.5934C43.9362 30.2481 41.8195 35.406 38.339 39.3113C34.3166 43.8248 28.4724 46.665 21.9679 46.665C16.2511 46.665 11.0441 44.4713 7.13597 40.8755C2.75012 36.8402 3.5346e-06 31.0394 0 24.5934C0 18.8633 2.17341 13.643 5.737 9.71958C8.02954 7.19559 10.7743 5.06067 12.7332 5.06067Z" fill="url(#paint2_linear_3181_2119)"/>
</g>
<defs>
<linearGradient id="paint0_linear_3181_2119" x1="37.2191" y1="11.81" x2="37.2202" y2="16.975" gradientUnits="userSpaceOnUse">
<stop stop-color="#356AB9"/>
</linearGradient>
<linearGradient id="paint1_linear_3181_2119" x1="33.1612" y1="16.5237" x2="33.1612" y2="35.749" gradientUnits="userSpaceOnUse">
<stop stop-color="#356AB9"/>
<stop offset="1" stop-color="#183053"/>
</linearGradient>
<linearGradient id="paint2_linear_3181_2119" x1="21.968" y1="5.06067" x2="21.9895" y2="55.6638" gradientUnits="userSpaceOnUse">
<stop stop-color="#356AB9"/>
</linearGradient>
<clipPath id="clip0_3181_2119">
<rect width="44" height="47" fill="white"/>
</clipPath>
</defs>
</svg>
